<?xml version="1.0" encoding="utf-8"?>
<!DOCTYPE svg PUBLIC "-//W3C//DTD SVG 20010904//EN" "http://www.w3.org/TR/2001/REC-SVG-20010904/DTD/svg10.dtd">
<svg version="1.0" xmlns="http://www.w3.org/2000/svg" width="260px" height="205px" viewBox="0 0 260 205" preserveAspectRatio="xMidYMid meet">
 <g fill="#020106">
  <path d="M165.5 201.3 c-1.1 -0.2 -4.7 -3.4 -8.1 -7 -5.6 -6.1 -6.4 -6.7 -11.5 -7.4 -12.6 -1.8 -39.6 -0.4 -43.8 2.3 -1 0.6 -3.3 3.3 -5.1 5.9 -3.6 5.4 -5.6 6.4 -10.5 5.5 -4.1 -0.8 -9.5 -6.6 -9.5 -10.2 0 -1.3 1.1 -4.2 2.5 -6.4 3.1 -4.9 3.1 -4.8 0 -10.1 -3.8 -6.8 -3.8 -6.9 5.3 -13.7 2.1 -1.6 2.2 -2 1.1 -4.4 -1.7 -3.8 0.2 -5.8 5.2 -5.8 3.8 0 3.9 -0.1 3.9 -3.8 0 -2.1 0.7 -4.8 1.6 -6 1.4 -2 2.3 -2.3 6.8 -2 l5.1 0.3 0.3 -4.2 c0.3 -4 0.1 -4.3 -3.5 -6.2 -5 -2.5 -8.8 -6.7 -10.3 -11.4 -1.5 -4.8 -1.5 -15.9 0 -23.2 1 -4.9 1 -5.9 -0.4 -7.4 -0.9 -1 -1.6 -2.2 -1.6 -2.8 0 -1.5 -6.9 -10.3 -8.1 -10.3 -0.5 0 -1.4 1.2 -2 2.8 -2.2 5.3 -4.2 8.7 -7.2 11.9 -4.9 5.2 -6.7 4.1 -6.7 -4.2 0 -2.4 -1.2 -7.2 -2.8 -11.1 -1.6 -3.8 -4.5 -10.8 -6.5 -15.6 -6 -14.3 -5.1 -17.5 6.6 -21.6 3.7 -1.4 9.5 -4.7 14.2 -8.3 15.6 -11.8 19.1 -12.5 25.7 -4.8 l4.5 5.2 6.4 -1.7 c8.3 -2 10 -2 19 0.4 4.1 1.1 7.7 2 8.1 2 0.3 0 1.6 -1.7 2.9 -3.7 6.1 -10.3 11.2 -9.7 27.9 3.2 3.8 2.8 9.6 6.2 13.1 7.4 13.8 5 13.9 7.1 2.4 33.1 -3.2 7.3 -4.8 12.4 -5.2 16.8 -0.3 3.4 -0.8 6.2 -1 6.2 -3.1 0 -10.1 -8.1 -11.8 -13.7 -0.7 -2.5 -3.6 -3.1 -5.3 -1 -0.5 0.6 -2.2 3.4 -3.6 6.1 -2.9 5.4 -3.2 9.8 -1.4 17.4 2.4 10.7 -3.1 24 -11.7 28.2 -5.3 2.6 -5.8 3.4 -4.7 7.5 0.8 2.9 1.1 3 5.9 2.7 6 -0.4 7.4 0.9 7.6 7 0.2 4.2 0.3 4.3 3.7 4.3 6.2 0 6.8 1.4 4.5 10.5 -0.5 2.1 -0.1 2.8 3.2 4.5 5.2 2.8 6.9 6.5 4.9 10.7 -2.3 4.4 -2 9.7 0.5 12.4 4.1 4.4 2 10.2 -4.8 13 -1.8 0.8 -3.4 1.3 -3.5 1.3 -0.2 -0.1 -1.2 -0.3 -2.3 -0.6z m-24.6 -28.9 c0.9 -0.8 -1.1 -3.6 -2.9 -4.1 -1.1 -0.3 -2 -0.8 -2 -1.2 0 -0.3 -2 -1.8 -4.5 -3.1 -3.8 -2 -4.8 -2.3 -6.3 -1.2 -0.9 0.6 -2.7 1.6 -3.9 2.2 -1.3 0.5 -2.3 1.4 -2.3 1.9 0 1.4 -4.8 2.3 -6.8 1.2 -1 -0.6 -3 -1.1 -4.5 -1.3 -1.4 -0.2 -3.5 -1.6 -4.7 -3.1 -1.6 -2 -3 -2.7 -5.5 -2.7 -5.2 0 -5.2 1.8 -0.1 6.9 4.6 4.6 4.7 4.6 12.9 5.2 7.7 0.6 29.8 0.1 30.6 -0.7z"/>
 </g>
 <g fill="#53c4d9">
  <path d="M43.5 189.4 c-4.8 -1.7 -9.7 -4.3 -10.7 -5.8 -1.6 -2.4 -0.8 -4.6 2 -5.1 1.5 -0.3 4.1 -1.3 5.8 -2.2 5.3 -2.5 8.4 -0.2 14 10.5 2.1 4 -3.4 5.4 -11.1 2.6z"/>
  <path d="M215.9 188.5 c-8.4 -1.4 -14.5 -3.9 -15.9 -6.5 -1.6 -3.1 0 -5.7 4.5 -7.5 2.4 -0.9 4.9 -2.3 5.5 -3.1 1.4 -1.6 8.2 -1.9 11.1 -0.4 1 0.6 2.5 2.3 3.3 3.8 0.8 1.5 2.6 4.1 4 5.7 3.3 3.8 3.4 7.1 0.2 7.9 -1.3 0.3 -3 0.8 -3.8 1 -0.7 0.2 -4.7 -0.2 -8.9 -0.9z"/>
  <path d="M58.6 177.8 c1 -3.3 2.4 -4.8 4.5 -4.8 2.4 0 2.4 1.1 -0.2 4.4 -2.6 3.3 -5.3 3.5 -4.3 0.4z"/>
  <path d="M232.7 173.3 c-2.1 -2 1.2 -9.8 4.5 -10.6 2.5 -0.7 3.8 2 2.6 5.2 -1.8 4.7 -5.2 7.3 -7.1 5.4z"/>
  <path d="M32.7 170.3 c-1.5 -1.5 -0.4 -8.3 1.4 -8.3 1.5 0 3.1 4.1 2.5 6.6 -0.6 2.3 -2.5 3.1 -3.9 1.7z"/>
  <path d="M138.5 168.6 c-3.7 -2.1 -4.6 -3.5 -4 -6.3 l0.5 -2.8 -1.1 2.7 c-1 2.7 -1.1 2.7 -3.6 1.1 -2.1 -1.4 -2.4 -2.2 -1.9 -5.1 0.3 -1.9 0.2 -3.2 -0.1 -2.8 -0.3 0.3 -1.2 0.1 -2 -0.5 -0.9 -0.8 -1.3 -0.8 -1.3 -0.1 0 0.6 0.5 1.4 1 1.7 1.8 1.1 1.1 4.6 -1.2 6.6 -3.1 2.5 -3.8 2.4 -3.9 -0.8 -0.1 -2 -0.3 -2.2 -0.6 -0.8 -0.2 1.1 -0.6 3 -0.8 4.1 -0.6 2.6 -4.7 3.9 -7.5 2.4 -1.2 -0.6 -2 -2.2 -2.1 -3.8 -0.1 -2.7 -0.1 -2.7 -0.8 -0.3 -0.9 3.4 -4 3.6 -5.4 0.3 -0.7 -1.5 -1.9 -2.8 -2.7 -3 -0.8 -0.2 -1.7 -0.8 -1.8 -1.3 -0.3 -0.6 -0.8 -0.6 -1.5 -0.1 -0.7 0.6 -3.1 1.3 -5.4 1.7 -5 0.8 -6.4 -0.9 -4.4 -5.2 1.1 -2.3 1 -2.5 -0.3 -1.4 -1.3 1.1 -1.7 1 -2.2 -0.3 -1 -2.6 1.5 -4.6 5.7 -4.6 3.8 0 3.9 -0.1 3.9 -3.7 0 -6.2 1.1 -6.9 5.9 -3.9 3.4 2.2 6.1 5.8 6.1 8.2 0 0.2 -1.2 0.5 -2.7 0.5 l-2.8 0.1 3 0.7 c2.3 0.5 3.2 0.3 3.7 -1 0.4 -0.9 1.1 -2 1.7 -2.4 0.6 -0.3 1.1 -2.6 1.1 -5 0 -2.9 0.5 -4.5 1.5 -4.9 0.8 -0.3 1.5 -1.7 1.5 -3.1 l0 -2.5 13.4 0 13.5 0 0.3 3.8 c0.3 3.5 0.5 3.7 3.6 3.4 2.9 -0.2 3.2 0.1 3.2 2.5 0 1.6 0.4 2.3 0.8 1.7 1 -1.6 8.8 -2.8 9.6 -1.5 0.4 0.5 -0.7 1.8 -2.4 2.7 -1.6 1 -3.3 2.6 -3.6 3.6 -0.8 2.6 -4.2 2.3 -4.7 -0.4 -0.3 -1.8 -0.5 -1.5 -0.6 0.8 -0.1 2.8 0.1 3.1 2.4 2.6 4.7 -0.8 8.2 4.6 5.6 8.7 -0.7 1.1 -1.3 1.2 -2.3 0.3 -1.2 -0.9 -1.4 -0.7 -1 1.6 0.4 3.2 -1.7 5.6 -4.2 4.6 -0.9 -0.3 -1.6 -1.4 -1.6 -2.3 0 -0.9 -0.5 -2.3 -1.1 -3.1 -0.8 -1.2 -0.9 -1 -0.4 0.8 1.4 4.9 -1.9 8.1 -6 5.8z m-38.5 -14.6 c1.2 -2.3 1.2 -2.4 -0.3 -1.1 -1 0.7 -1.7 2 -1.7 2.9 0 1.8 0.3 1.6 2 -1.8z m43.5 -0.4 c-0.4 -1.1 -0.7 -4 -0.6 -6.3 0.1 -2.4 -0.2 -4.3 -0.7 -4.3 -0.5 0 -2.2 1.6 -3.8 3.6 -1.6 1.9 -3.7 4.4 -4.6 5.5 -1.7 1.8 -1.7 1.9 1 1.9 1.6 0 3.7 0.6 4.7 1.4 2.6 1.9 4.8 0.9 4 -1.8z m-23.5 0.4 c1.8 0 1.8 -0.2 -0.3 -3.3 -1.8 -2.8 -2.4 -3.1 -3.5 -2 -0.7 0.7 -1.8 1.3 -2.3 1.3 -1.4 0 -1.1 3.8 0.4 4.3 0.6 0.3 1.8 0.4 2.5 0.1 0.8 -0.2 2.2 -0.4 3.2 -0.4z"/>
  <path d="M54 164.6 c0 -3.2 2.7 -6.6 5.2 -6.6 1.6 0 0.8 6.7 -1 8.3 -2.9 2.6 -4.2 2 -4.2 -1.7z"/>
  <path d="M199.2 166.8 c-2.3 -2.9 -3.1 -6.7 -2.1 -9.8 1.2 -3.4 2.1 -3.7 4.3 -1.4 2.2 2.1 3.1 6.2 2 9.2 -1.1 3 -2.7 3.8 -4.2 2z"/>
  <path d="M43.7 164.3 c-1.2 -1.1 -0.8 -5.8 0.6 -7.8 2.8 -3.8 5.1 2 2.7 6.6 -1.1 2 -2.2 2.4 -3.3 1.2z"/>
  <path d="M224.2 157.8 c-2.5 -2.5 -0.1 -9.7 4 -11.9 1.8 -1 2.4 -0.8 3.5 0.7 1.8 2.5 1.6 5.4 -0.7 9.2 -2 3.3 -4.7 4.1 -6.8 2z"/>
  <path d="M210.4 155.5 c-1.1 -1.8 -1.5 -3.6 -1.1 -6.2 0.8 -4.5 1.9 -5.7 4.6 -4.8 2.7 0.8 3.8 6.4 1.9 10.1 -1.8 3.7 -3.4 4 -5.4 0.9z"/>
  <path d="M23.3 134.4 c-0.3 -0.9 0.4 -2.7 1.6 -4.2 1.2 -1.5 2.6 -3.7 3.3 -4.9 1.8 -3.6 6.2 -3.9 12.4 -0.8 5.9 3 7 5.5 3.2 7.7 -6.8 3.8 -19.3 5.2 -20.5 2.2z"/>
  <path d="M186.5 131 c-0.4 -0.6 0.2 -2.1 1.4 -3.4 1.2 -1.2 2.1 -2.8 2.1 -3.4 0 -2.5 5.2 -2.6 9.7 -0.2 2.4 1.2 4.3 2.6 4.3 3 0 3 -15.9 6.6 -17.5 4z"/>
  <path d="M106.5 128.6 c-5.9 -2.7 -8.8 -5.7 -11 -10.9 -1.9 -4.6 -2.1 -14.6 -0.5 -24 1.1 -6.3 1.1 -6.9 -0.6 -8.2 -1.7 -1.2 -1.3 -1.3 3.1 -1.2 6.1 0.2 10.2 -1.7 13.2 -6.2 9.2 -13.7 -9.3 -28.9 -21.1 -17.5 -3.3 3.2 -3.6 3.3 -4.6 1.5 -1.6 -3.1 -1.2 -4.8 1.8 -8.2 1.8 -2 4.5 -3.6 7.7 -4.4 4.6 -1.3 4.7 -1.4 1.6 -1.4 -3.5 -0.1 -3.6 -0.4 -1.5 -5.6 0.7 -1.9 0.7 -2 -1.3 -0.2 -1.2 1 -2.4 2.9 -2.7 4.2 -0.3 1.2 -1.7 3 -3.1 3.9 -3.5 2.3 -4 0.7 -2.6 -9.4 1.1 -8.5 3.9 -15.2 7.1 -17.2 3.1 -2 2.4 -3 -0.9 -1.4 -3.2 1.7 -5.5 6 -7.2 13.4 -0.8 3.4 -1.8 5.2 -3.1 5.5 -2.5 0.7 -2.4 6.1 0.2 9.7 1.6 2.2 1.9 3.8 1.4 6.7 -0.3 2.1 -0.1 5 0.5 6.6 1 2.5 0.9 2.7 -1.2 2.2 -1.8 -0.5 -2.6 -0.1 -3.5 1.9 -0.8 1.8 -1.9 2.6 -3.7 2.6 -2 0 -2.9 0.8 -4.1 3.5 -0.8 1.9 -1.6 3.5 -1.8 3.5 -0.3 0 -1.2 -2.4 -2.2 -5.2 -0.9 -2.9 -2.3 -6.2 -3 -7.4 -1.3 -1.8 -1.1 -2.3 1.7 -4.3 3 -2.2 3 -2.3 2.4 -8.9 l-0.7 -6.7 3.6 -3.3 c2 -1.8 3.8 -4.5 4.2 -6 0.3 -1.5 0.8 -3.4 1 -4.3 0.5 -1.7 12.1 -10.8 17.1 -13.3 6.3 -3.2 10.2 -1.8 14.1 5.2 1.1 1.9 1.1 2.6 0 4 -1.1 1.3 -1 1.5 1 1 2 -0.6 2.2 -0.3 2.2 3.1 0 4.3 1.4 6.1 4.9 6.1 3.5 0 4.7 1 5.5 4.5 1.1 4.5 2.4 5.5 7.3 5.5 3.5 0 4.9 -0.6 6.8 -2.6 1.4 -1.5 2.5 -3 2.5 -3.4 0 -0.4 2.5 -2 5.5 -3.6 5.9 -3.1 7.5 -5.7 5.5 -9.3 -0.6 -1.2 -0.8 -3.1 -0.5 -4.2 0.6 -1.9 0.8 -1.9 3.7 0.6 3.9 3.3 7.2 3 7.6 -0.8 0.4 -3.5 2.4 -3.4 5.6 0.3 3.4 4.1 5.6 11.9 5.6 19.7 0 6.9 -1.2 8.1 -2.9 3.1 -0.6 -1.8 -2 -4.4 -3.1 -5.8 l-2 -2.5 1.5 3.7 c2.2 5.4 2 5.6 -3.2 5.2 l-4.8 -0.3 4.5 0.9 c8.1 1.8 13.4 7.7 11.1 12.7 l-1.1 2.5 -2.8 -3 c-6.1 -6.5 -15.2 -6.4 -21.2 0.4 -2.5 2.9 -3 4.3 -3 8.6 0 9 7.6 15.6 16.5 14.4 3.6 -0.5 3.8 -0.5 2.1 0.9 -1.8 1.4 -1.8 1.7 -0.1 11 1.4 8 1.5 10.4 0.5 14.8 -2 8.6 -5.2 13.2 -11.5 16.3 -6.3 3 -16.2 3.7 -20.5 1.4 l-2.5 -1.4 3 -0.8 c1.7 -0.4 4.9 -1.2 7.3 -1.8 11.1 -2.8 16.8 -15.4 11.1 -24.7 -2.8 -4.5 -10.6 -7.3 -20.8 -7.3 -12.8 0 -20.6 3.9 -23.1 11.5 -2.6 7.8 4.1 18.2 13 20.5 7.8 1.9 7.8 1.9 5.1 4.1 -3.3 2.7 -10.3 2.5 -16.6 -0.5z"/>
  <path d="M16.9 121.3 c-0.5 -1.4 -0.7 -3.4 -0.4 -4.2 0.6 -1.3 1 -1.2 2.6 0.8 1 1.3 1.9 3.2 1.9 4.2 0 2.8 -2.9 2.3 -4.1 -0.8z"/>
  <path d="M182.3 121.8 c-2.1 -2.8 -2.4 -3.8 -0.9 -3.8 0.8 0 1.8 0.9 2.1 2.1 0.8 2.5 0.2 3.4 -1.2 1.7z"/>
  <path d="M67.7 117.4 c-4.5 -3 -4.7 -4.6 -0.5 -4.2 2.6 0.2 3.3 0.9 4 3.2 0.4 1.7 0.6 3.1 0.5 3.3 -0.2 0.1 -2 -0.9 -4 -2.3z"/>
  <path d="M44 115.6 c0 -3.3 2 -6.2 3.3 -4.9 0.9 0.8 0.9 4.6 0.1 6.7 -1.1 3 -3.4 1.8 -3.4 -1.8z"/>
  <path d="M203 116.1 c0 -1.7 0.5 -3.1 1 -3.1 0.6 0 1 1.1 1 2.4 0 1.4 -0.4 2.8 -1 3.1 -0.6 0.4 -1 -0.7 -1 -2.4z"/>
  <path d="M186.2 112.8 c-1.3 -1.3 -1.6 -5.8 -0.4 -5.8 1.5 0 3.2 2.4 3.2 4.7 0 2.5 -1 2.9 -2.8 1.1z"/>
  <path d="M23.1 111.1 c-1.5 -2.8 -1.4 -7.1 0.2 -7.1 2.2 0 4.9 3.7 4.5 6.2 -0.4 2.9 -3.3 3.5 -4.7 0.9z"/>
  <path d="M195.7 112.4 c-1 -1.1 -0.8 -6.4 0.2 -6.4 1.4 0 2.3 3.7 1.4 5.5 -0.5 0.9 -1.2 1.2 -1.6 0.9z"/>
  <path d="M34.4 109.6 c-0.8 -3.5 -0.1 -6 1.7 -6.4 2.1 -0.4 3.3 4.1 1.9 6.8 -1.4 2.7 -2.8 2.5 -3.6 -0.4z"/>
  <path d="M93.4 82.2 c-2.4 -1.7 -6.8 -8.6 -5.7 -8.9 0.7 -0.3 1 -1.7 0.6 -3.7 -0.4 -2.7 -0.1 -3.6 1.7 -4.9 2.6 -1.8 5.7 -1.2 7.1 1.5 1.2 2.3 0.4 5.4 -1.6 6.2 -2 0.7 -1.9 3.2 0.1 4 4 1.5 7.5 0.6 9.2 -2.4 1.9 -3.4 2.2 -3.5 4.6 -1.7 4.3 3.2 -3.4 10.7 -10.9 10.7 -2.2 0 -4.5 -0.4 -5.1 -0.8z"/>
  <path d="M148.5 79.9 c-3.9 -3.4 -4.5 -6.3 -1.7 -7.8 1.5 -0.8 2.3 -0.4 4.1 1.9 1.5 2.1 3 3 5 3 6 0 8 -2.4 4.1 -4.8 -2.2 -1.4 -2.7 -5.1 -0.8 -7 0.7 -0.7 2.4 -1.2 4 -1.2 3.1 0 5 2.6 4.1 5.8 -0.3 1.2 0 2.8 0.6 3.5 0.8 1.1 0.2 2.3 -2.8 5.5 -3.4 3.8 -4.3 4.2 -8.4 4.2 -3.8 0 -5.3 -0.6 -8.2 -3.1z"/>
  <path d="M207.8 82.3 c-1.4 -0.2 -3.2 -1 -3.8 -1.8 -0.9 -1.1 -0.5 -1.7 1.9 -2.9 1.6 -0.9 3.6 -1.6 4.4 -1.6 1.2 0 5.7 5.1 5.7 6.5 0 0.5 -3.8 0.5 -8.2 -0.2z"/>
 </g>
 <g fill="#d4d4df">
  <path d="M85 199.9 c-7.1 -2.9 -9.5 -9.2 -6 -15.2 2.2 -3.7 3.9 -4.1 4.1 -0.9 0 1 0.3 1.2 0.6 0.5 0.2 -0.7 -0.9 -4 -2.6 -7.3 -1.7 -3.3 -3.1 -7.1 -3.1 -8.4 0 -3.5 7 -9 8.5 -6.6 0.4 0.6 1.6 1 2.7 1 2.4 0 9.1 4.7 8.3 5.9 -1 1.7 7.5 4 17 4.5 12.7 0.7 36.8 -0.9 42 -2.8 3.3 -1.2 3.5 -1.5 1.5 -1.5 l-2.5 -0.1 2.8 -2.7 c6 -6 17.7 -1.8 17.7 6.3 0 1.8 -0.4 3.6 -1 3.9 -0.5 0.3 -1 1.6 -1 2.8 0 1.8 -0.2 1.9 -1 0.7 -0.8 -1.2 -1 -1.2 -1 0.5 0.1 1.1 1.4 3.8 3 5.9 1.7 2.2 3 4.5 3 5.2 0 4.5 -5.4 9.4 -10.4 9.4 -2.8 0 -11.6 -7.2 -11.6 -9.4 0 -2.9 -7.3 -4.8 -20.5 -5.3 -19.6 -0.8 -35.5 1.6 -38.1 5.8 -0.5 0.8 -0.3 0.9 0.6 0.4 1.6 -1 -2.2 4.6 -4.2 6.3 -2.1 1.7 -6.1 2.2 -8.8 1.1z"/>
  <path d="M144 170 c0.8 -0.5 2.6 -1 3.9 -1 1.5 0 3.7 -1.4 5.7 -3.5 1.7 -1.9 3.8 -3.5 4.5 -3.5 2 0 -4.2 6.1 -7.8 7.6 -3.9 1.7 -8.7 2 -6.3 0.4z"/>
  <path d="M138.5 168.6 c-3.7 -2.1 -4.6 -3.5 -4 -6.3 l0.5 -2.8 -1.1 2.7 c-1 2.7 -1.1 2.7 -3.6 1.1 -2.1 -1.4 -2.4 -2.2 -1.9 -5.1 0.3 -1.9 0.2 -3.2 -0.1 -2.8 -0.3 0.3 -1.2 0.1 -2 -0.5 -0.9 -0.8 -1.3 -0.8 -1.3 -0.1 0 0.6 0.5 1.4 1 1.7 1.8 1.1 1.1 4.6 -1.2 6.6 -3.1 2.5 -3.8 2.4 -3.9 -0.8 -0.1 -2 -0.3 -2.2 -0.6 -0.8 -0.2 1.1 -0.6 3 -0.8 4.1 -0.6 2.6 -4.7 3.9 -7.5 2.4 -1.2 -0.6 -2 -2.2 -2.1 -3.8 -0.1 -2.7 -0.1 -2.7 -0.8 -0.3 -0.9 3.4 -4 3.6 -5.4 0.3 -0.7 -1.5 -1.9 -2.8 -2.7 -3 -0.8 -0.2 -1.7 -0.8 -1.8 -1.3 -0.3 -0.6 -0.8 -0.6 -1.5 -0.1 -0.7 0.6 -3.1 1.3 -5.4 1.7 -5 0.8 -6.4 -0.9 -4.4 -5.2 1.1 -2.3 1 -2.5 -0.3 -1.4 -1.3 1.1 -1.7 1 -2.2 -0.3 -1 -2.6 1.5 -4.6 5.7 -4.6 3.8 0 3.9 -0.1 3.9 -3.7 0 -6.2 1.1 -6.9 5.9 -3.9 3.4 2.2 6.1 5.8 6.1 8.2 0 0.2 -1.2 0.5 -2.7 0.5 l-2.8 0.1 3 0.7 c2.3 0.5 3.2 0.3 3.7 -1 0.4 -0.9 1.1 -2 1.7 -2.4 0.6 -0.3 1.1 -2.6 1.1 -5 0 -2.9 0.5 -4.5 1.5 -4.9 0.8 -0.3 1.5 -1.7 1.5 -3.1 l0 -2.5 13.4 0 13.5 0 0.3 3.8 c0.3 3.5 0.5 3.7 3.6 3.4 2.9 -0.2 3.2 0.1 3.2 2.5 0 1.6 0.4 2.3 0.8 1.7 1 -1.6 8.8 -2.8 9.6 -1.5 0.4 0.5 -0.7 1.8 -2.4 2.7 -1.6 1 -3.3 2.6 -3.6 3.6 -0.8 2.6 -4.2 2.3 -4.7 -0.4 -0.3 -1.8 -0.5 -1.5 -0.6 0.8 -0.1 2.8 0.1 3.1 2.4 2.6 4.7 -0.8 8.2 4.6 5.6 8.7 -0.7 1.1 -1.3 1.2 -2.3 0.3 -1.2 -0.9 -1.4 -0.7 -1 1.6 0.4 3.2 -1.7 5.6 -4.2 4.6 -0.9 -0.3 -1.6 -1.4 -1.6 -2.3 0 -0.9 -0.5 -2.3 -1.1 -3.1 -0.8 -1.2 -0.9 -1 -0.4 0.8 1.4 4.9 -1.9 8.1 -6 5.8z m-38.5 -14.6 c1.2 -2.3 1.2 -2.4 -0.3 -1.1 -1 0.7 -1.7 2 -1.7 2.9 0 1.8 0.3 1.6 2 -1.8z m43.5 -0.4 c-0.4 -1.1 -0.7 -4 -0.6 -6.3 0.1 -2.4 -0.2 -4.3 -0.7 -4.3 -1.1 0 -7.2 6.9 -7.2 8.1 0 0.5 -1 1.4 -2.2 1.9 -2 0.8 -1.9 0.9 1.3 0.9 1.9 0.1 4.4 0.7 5.4 1.5 2.6 1.9 4.8 0.9 4 -1.8z m-23.5 0.4 c1.8 0 1.8 -0.2 -0.3 -3.3 -1.8 -2.8 -2.4 -3.1 -3.5 -2 -0.7 0.7 -1.8 1.3 -2.3 1.3 -1.4 0 -1.1 3.8 0.4 4.3 0.6 0.3 1.8 0.4 2.5 0.1 0.8 -0.2 2.2 -0.4 3.2 -0.4z"/>
  <path d="M160.3 161.3 c-3 -0.4 -3.3 -0.8 -3.3 -3.7 0 -1.7 -0.5 -3.7 -1.2 -4.4 -0.9 -0.9 -0.8 -1.2 0.8 -1.2 1.1 0 2.4 -0.4 3 -0.9 1.6 -1.5 7 -2.1 8.3 -0.8 1.7 1.7 1.4 5 -0.4 4.3 -1.2 -0.4 -1.3 -0.2 -0.6 1.3 1.4 2.4 0.2 6.1 -1.8 5.9 -0.9 0 -3.1 -0.3 -4.8 -0.5z"/>
  <path d="M106.5 128.6 c-5.9 -2.7 -8.8 -5.7 -11 -10.9 -1.9 -4.6 -2.1 -14.6 -0.5 -24 1.1 -6.3 1.1 -6.9 -0.6 -8.2 -1.7 -1.2 -1.3 -1.3 3.1 -1.2 6.1 0.2 10.2 -1.7 13.2 -6.2 9.2 -13.7 -9.3 -28.9 -21.1 -17.5 -3.3 3.2 -3.6 3.3 -4.6 1.5 -1.6 -3.1 -1.2 -4.8 1.8 -8.2 1.8 -2 4.5 -3.6 7.7 -4.4 4.6 -1.3 4.7 -1.4 1.6 -1.4 -3.5 -0.1 -3.6 -0.4 -1.5 -5.6 0.7 -1.9 0.7 -2 -1.3 -0.2 -1.2 1 -2.4 2.9 -2.7 4.2 -0.3 1.2 -1.7 3 -3.1 3.9 -3.5 2.3 -4 0.7 -2.6 -9.4 1.1 -8.5 3.9 -15.2 7.1 -17.2 3.1 -2 2.4 -3 -0.9 -1.4 -3.2 1.7 -5.5 6 -7.2 13.4 -0.8 3.4 -1.8 5.2 -3.1 5.5 -2.5 0.7 -2.4 6.1 0.2 9.7 1.6 2.2 1.9 3.8 1.4 6.7 -0.3 2.1 -0.1 5 0.5 6.6 1 2.5 0.9 2.7 -1.2 2.2 -1.8 -0.5 -2.6 -0.1 -3.5 1.9 -0.8 1.8 -1.9 2.6 -3.7 2.6 -2 0 -2.9 0.8 -4.1 3.5 -0.8 1.9 -1.6 3.5 -1.8 3.5 -0.3 0 -1.2 -2.4 -2.2 -5.2 -0.9 -2.9 -2.3 -6.2 -3 -7.4 -1.3 -1.8 -1.1 -2.3 1.7 -4.3 3 -2.2 3 -2.3 2.4 -8.9 l-0.7 -6.7 3.6 -3.3 c2 -1.8 3.8 -4.5 4.2 -6 0.3 -1.5 0.8 -3.4 1 -4.3 0.5 -1.7 12.1 -10.8 17.1 -13.3 6.3 -3.2 10.2 -1.8 14.1 5.2 1.1 1.9 1.1 2.6 0 4 -1.1 1.3 -1 1.5 1 1 2 -0.6 2.2 -0.3 2.2 3.1 0 4.3 1.4 6.1 4.9 6.1 3.5 0 4.7 1 5.5 4.5 1.1 4.5 2.4 5.5 7.3 5.5 3.5 0 4.9 -0.6 6.8 -2.6 1.4 -1.5 2.5 -3 2.5 -3.4 0 -0.4 2.5 -2 5.5 -3.6 5.9 -3.1 7.5 -5.7 5.5 -9.3 -0.6 -1.2 -0.8 -3.1 -0.5 -4.2 0.6 -1.9 0.8 -1.9 3.7 0.6 3.9 3.3 7.2 3 7.6 -0.8 0.4 -3.5 2.4 -3.4 5.6 0.3 3.4 4.1 5.6 11.9 5.6 19.7 0 6.9 -1.2 8.1 -2.9 3.1 -0.6 -1.8 -2 -4.4 -3.1 -5.8 l-2 -2.5 1.5 3.7 c2.2 5.4 2 5.6 -3.2 5.2 l-4.8 -0.3 4.5 0.9 c8.1 1.8 13.4 7.7 11.1 12.7 l-1.1 2.5 -2.8 -3 c-6.1 -6.5 -15.2 -6.4 -21.2 0.4 -2.5 2.9 -3 4.3 -3 8.7 0 4.4 0.5 5.9 3 8.9 3.5 4.3 8.6 6.3 13.8 5.4 3.4 -0.6 3.5 -0.5 1.8 0.8 -1.8 1.5 -1.8 1.8 -0.1 11.1 1.4 8 1.5 10.4 0.5 14.8 -2 8.6 -5.2 13.2 -11.5 16.3 -6.3 3 -16.2 3.7 -20.5 1.4 l-2.5 -1.4 3 -0.8 c1.7 -0.4 4.9 -1.2 7.3 -1.8 11.1 -2.8 16.8 -15.4 11.1 -24.7 -2.8 -4.5 -10.6 -7.3 -20.8 -7.3 -12.8 0 -20.6 3.9 -23.1 11.5 -2.6 7.8 4.1 18.2 13 20.5 7.8 1.9 7.8 1.9 5.1 4.1 -3.3 2.7 -10.3 2.5 -16.6 -0.5z"/>
  <path d="M121.5 100.6 c-1.8 -1.3 -1.8 -1.4 0.3 -2.5 2.2 -1.2 12.9 -1.5 15.6 -0.5 0.9 0.3 1.6 1.2 1.6 1.9 0 1.9 -2.4 2.5 -9.4 2.5 -3.7 0 -7 -0.6 -8.1 -1.4z"/>
  <path d="M180.5 88.1 c-1.7 -1 -4.3 -4.1 -5.8 -7 l-2.9 -5.2 2.2 -1.7 c1.6 -1.3 2.4 -3.4 2.9 -8.2 0.7 -5.7 1.2 -6.7 4.4 -9.5 5.6 -4.8 8.6 -13.7 5.5 -16.3 -0.7 -0.6 -3 -1.3 -5.1 -1.7 -5.3 -1 -9.6 -4.3 -12.7 -9.5 -1.4 -2.5 -4.1 -5.5 -5.9 -6.7 -2.6 -1.7 -3 -2.4 -1.8 -2.9 1.7 -0.6 4.6 1 13.4 7.9 3.3 2.6 9.4 6.1 13.4 7.7 10.1 4.2 11.2 5.4 10.6 11.1 -0.3 2.6 -1.9 7.6 -3.6 11.3 -2.9 6.4 -3.1 6.6 -6 6 -5.8 -1.2 -8.6 4.6 -5.5 11.3 1.8 3.7 2.2 12.9 0.6 14.5 -0.4 0.4 -2.1 -0.1 -3.7 -1.1z"/>
  <path d="M90.3 72 c-3 -1.2 -3 -5.4 -0.2 -7.4 2.3 -1.6 4.7 -1.2 6.7 1.2 1.6 2.1 1.5 3.7 -0.4 5.6 -1.7 1.8 -2.9 1.9 -6.1 0.6z"/>
  <path d="M159.2 71.8 c-0.7 -0.7 -1.2 -2.1 -1.2 -3.3 0 -2.9 1.9 -4.5 5.2 -4.5 3.1 0 5 2.6 4.2 5.7 -0.8 3 -6 4.3 -8.2 2.1z"/>
 </g>
 <g fill="#ebe9f4">
  <path d="M137.8 168.3 c-2.1 -0.5 -3.3 -4.3 -2.3 -7.2 0.8 -2.5 -0.1 -2.7 -2.2 -0.6 -2.2 2.2 -3.8 1.3 -3.8 -2 0 -4 4 -5.3 9 -2.9 2 0.9 3.9 1.4 4.2 1 0.4 -0.4 0.8 -3.5 0.8 -7.1 0.2 -7.1 -1.3 -9 -4 -5.2 -1.5 2.1 -1.5 2.1 -1.5 -1.2 0 -3.3 0 -3.4 -2 -1.6 -1.1 1 -2 2.7 -2 3.7 0 2.7 -5.4 7.8 -8.2 7.8 -4.9 0 -8.8 -5.4 -6.7 -9.3 0.6 -0.9 0.2 -2 -1.1 -3.2 -2 -1.8 -2 -1.7 -2 2.5 0 3 -0.6 5 -2 6.5 -3.4 3.7 -1.7 5.5 5 5.5 5 0 6 0.3 6.5 2 0.7 2.3 -1 5 -3.1 5 -0.8 0 -1.4 -0.7 -1.4 -1.5 0 -0.8 -0.5 -1.5 -1.1 -1.5 -0.7 0 -0.9 1 -0.5 2.5 0.8 3.1 -2.5 6.8 -5.7 6.3 -1.7 -0.2 -2.3 -1.2 -2.7 -3.8 l-0.5 -3.5 -1.7 2.3 c-2.1 3 -5.4 2.6 -5 -0.7 0.1 -1.6 -0.4 -2.4 -1.8 -2.8 -2.4 -0.6 -2.6 -3.6 -0.4 -5.8 1.2 -1.1 2.5 -1.4 4.6 -0.9 2.2 0.4 2.8 0.3 2.3 -0.6 -0.4 -0.6 0.1 -1.7 1.1 -2.5 1.3 -0.9 1.7 -2.4 1.6 -5.2 -0.2 -2.9 0.3 -4.4 1.8 -5.8 1.1 -1 2 -2.6 2 -3.7 0 -1.7 1 -1.8 13.1 -1.8 12.6 0 13 0.1 12.4 2 -1.1 3.6 0.3 6 3.7 6 l3 0 -0.7 6.4 -0.6 6.5 2.7 0.3 c3.5 0.4 4.2 2.5 1.2 3.7 -1.2 0.6 -1.8 1 -1.1 1 0.7 0.1 1.7 1 2.3 2.1 0.8 1.5 0.6 2.1 -1 3 -1.6 0.8 -2.3 0.7 -3.7 -1 l-1.8 -2.1 -0.5 2.7 c-0.6 3 -3.6 5.3 -6.2 4.7z"/>
  <path d="M152 109 c0 -11 -11.9 -18.1 -27.7 -16.7 -12.1 1.2 -19.1 6.1 -20 14.1 -0.6 5.4 -2.1 5.9 -6 2 -2.4 -2.4 -2.5 -3 -2 -9.7 0.6 -8.6 2.7 -13.2 6.4 -14.2 4.6 -1.1 8.1 -4.3 9.9 -9 1.4 -3.9 1.5 -5.2 0.5 -8.7 -1.3 -4.3 -5 -8.4 -9.1 -10 -4.2 -1.6 -11.4 0 -14.7 3.3 -3.3 3.2 -4.3 2.9 -4.3 -1.2 0 -4 4.3 -7.6 11 -9.1 5.4 -1.3 5.5 -1.3 1.8 -1.6 -4.6 -0.4 -4.8 -1.9 -1.3 -7.9 2.9 -5.2 1.8 -5.5 -3.5 -0.7 -2.5 2.3 -4.2 4.8 -4.6 7 -0.3 1.8 -1.3 3.9 -2.2 4.6 -1.3 1.2 -1.5 0.4 -1 -7.3 0.6 -9.7 3 -16.1 7.4 -20.2 2.7 -2.5 2.7 -2.7 0.8 -2.7 -4.3 0 -10.4 9.6 -10.4 16.3 0 1 -1.1 2.8 -2.5 3.9 -3 2.4 -3.2 6.3 -0.5 9.8 2.5 3.2 2.9 14 0.5 14 -0.9 0 -2 1.1 -2.5 2.4 -0.5 1.3 -2 2.6 -3.5 3 -1.4 0.4 -3.4 2 -4.4 3.6 l-1.8 3 -1.2 -3.9 c-0.6 -2.2 -1.8 -5.2 -2.6 -6.7 -1.4 -2.7 -1.3 -3 1.5 -5.6 2.9 -2.6 3 -2.9 2.4 -8.7 -0.7 -5.9 -0.6 -6.1 2.9 -10.1 2.3 -2.4 3.9 -5.4 4.3 -7.7 0.5 -3 1.7 -4.7 5.8 -8 6.9 -5.6 13.5 -9.3 16.7 -9.3 5.6 0 11 8.6 7.3 11.6 -1.8 1.4 -1.7 1.4 1.3 0.9 3.2 -0.6 3.3 -0.6 2.7 2.2 -0.7 3.8 1.5 6.4 6.1 7.2 3.5 0.5 4 1 4.6 4.1 1 4.6 3.4 6.3 8.4 5.6 3.1 -0.3 4.8 -1.4 7.5 -4.4 1.9 -2.2 5.3 -4.9 7.6 -6 5.7 -2.9 6.6 -4.2 5.4 -8.3 -1.6 -5.5 -1.3 -6.3 1.6 -4 1.5 1.2 3.9 2.1 5.4 2.1 2.2 0 2.9 -0.6 3.7 -3.2 l0.9 -3.3 2.7 4.6 c1.5 2.5 3 6.8 3.3 9.5 l0.7 4.9 -3.4 -3.1 c-1.9 -1.7 -4.7 -3.9 -6.4 -4.9 -2.9 -1.8 -3 -1.8 -1.3 0.1 3.7 4.3 3.5 13.8 -0.4 15.3 -1.8 0.7 -1.5 0.9 2.1 1.5 8.2 1.3 13 4.9 13.1 9.8 0 3.2 -1.5 4.5 -2.7 2.3 -0.5 -0.8 -2.6 -2.4 -4.8 -3.5 -10.5 -5.3 -20.8 0.9 -20.9 12.6 -0.1 6.5 2.2 10 8.6 13.1 4 2 4.7 2.8 6.3 7.8 2.3 7.3 1.7 14.6 -1.5 18 -3.1 3.3 -4 3.1 -4 -0.5z"/>
  <path d="M179.6 86.9 c-1.4 -1.1 -3.6 -3.9 -4.7 -6 l-2 -4 2 -2.5 c1.2 -1.5 2.3 -4.9 2.7 -8.4 0.6 -5.3 1.1 -6.3 5.5 -10.8 4.6 -4.7 4.9 -5.4 4.9 -10.1 0 -5.5 -0.7 -6.3 -6.9 -7.5 -4.7 -0.8 -9.7 -4.9 -12.1 -9.7 -1.2 -2.2 -3.4 -4.8 -5.1 -5.8 -1.8 -1.1 -2.6 -2.2 -2 -2.5 1.3 -0.8 5 1.4 12.1 7.4 3 2.6 8 5.7 11 7.1 10 4.4 11.5 5.4 12.8 8.1 1.6 3.5 0.8 7.9 -2.7 14.8 -2.4 4.7 -3.3 5.5 -5.7 5.6 -4.8 0.1 -5.1 0.3 -6.8 3.9 -1.6 3.3 -1.6 3.7 0.4 8.3 2.2 5.2 2.5 13.2 0.4 13.9 -0.6 0.2 -2.3 -0.6 -3.8 -1.8z"/>
 </g>
 <g fill="#ebeaef">
  <path d="M137.8 168.3 c-2.1 -0.5 -3.3 -4.3 -2.3 -7.2 0.8 -2.5 -0.1 -2.7 -2.2 -0.6 -2.2 2.2 -3.8 1.3 -3.8 -2 0 -4 4 -5.3 9 -2.9 2 0.9 3.9 1.4 4.2 1 0.4 -0.4 0.8 -3.5 0.8 -7.1 0.2 -7.1 -1.3 -9 -4 -5.2 -1.5 2.1 -1.5 2.1 -1.5 -1.2 0 -3.3 0 -3.4 -2 -1.6 -1.1 1 -2 2.7 -2 3.7 0 2.7 -5.4 7.8 -8.2 7.8 -4.9 0 -8.8 -5.4 -6.7 -9.3 0.6 -0.9 0.2 -2 -1.1 -3.2 -2 -1.8 -2 -1.7 -2 2.5 0 3 -0.6 5 -2 6.5 -3.4 3.7 -1.7 5.5 5 5.5 5 0 6 0.3 6.5 2 0.7 2.3 -1 5 -3.1 5 -0.8 0 -1.4 -0.7 -1.4 -1.5 0 -0.8 -0.5 -1.5 -1.1 -1.5 -0.7 0 -0.9 1 -0.5 2.5 0.8 3.1 -2.1 6.3 -5.5 6 -1.9 -0.1 -2.5 -0.8 -2.9 -3.6 l-0.5 -3.4 -1.7 2.3 c-2.1 3 -5.4 2.6 -5 -0.7 0.1 -1.6 -0.4 -2.4 -1.8 -2.8 -2.4 -0.6 -2.6 -3.6 -0.4 -5.8 1.2 -1.1 2.5 -1.4 4.6 -0.9 2.2 0.4 2.8 0.3 2.3 -0.6 -0.4 -0.6 0.1 -1.7 1.1 -2.5 1.3 -0.9 1.7 -2.4 1.6 -5.2 -0.2 -2.9 0.3 -4.4 1.8 -5.8 1.1 -1 2 -2.6 2 -3.7 0 -1.7 1 -1.8 13.1 -1.8 12.6 0 13 0.1 12.4 2 -1.1 3.6 0.3 6 3.7 6 l3 0 -0.7 6.4 -0.6 6.5 2.7 0.3 c3.5 0.4 4.2 2.5 1.2 3.7 -1.2 0.6 -1.8 1 -1.1 1 0.7 0.1 1.7 1 2.3 2.1 0.8 1.5 0.6 2.1 -1 3 -1.6 0.8 -2.3 0.7 -3.7 -1 l-1.8 -2.1 -0.5 2.7 c-0.6 3 -3.6 5.3 -6.2 4.7z"/>
  <path d="M154 165 c0.6 -1.1 1.6 -2 2.2 -2 0.6 0 0.3 0.9 -0.7 2 -1 1.1 -2 2 -2.2 2 -0.2 0 0.1 -0.9 0.7 -2z"/>
  <path d="M88 157.5 c0 -0.9 1 -2 2.3 -2.5 2 -0.8 1.9 -0.9 -1.1 -0.9 -2.6 -0.1 -3.3 -0.5 -3 -1.8 0.2 -1.4 1.5 -1.9 4.9 -2.1 4.3 -0.3 4.6 -0.5 4.1 -2.7 -0.2 -1.4 -0.1 -3.6 0.2 -5.1 0.6 -2.2 0.9 -2.4 2.2 -1.3 0.9 0.7 2.6 1.8 3.8 2.4 1.2 0.6 2.2 2.2 2.4 3.8 0.3 2.1 -0.2 2.9 -2.3 3.7 -1.5 0.6 -3.2 2.4 -4.1 4.5 -1.3 3.2 -1.8 3.5 -5.4 3.5 -2.9 0 -4 -0.4 -4 -1.5z"/>
  <path d="M160.4 157.6 c-0.3 -0.8 -0.3 -1.9 0 -2.5 0.9 -1.4 6.1 0.3 6.1 2 0 2 -5.3 2.5 -6.1 0.5z"/>
  <path d="M160 151.6 c0 -1.7 6 -2.8 7.7 -1.4 2 1.6 0.5 2.8 -3.8 2.8 -2.7 0 -3.9 -0.4 -3.9 -1.4z"/>
  <path d="M151 146.2 c0 -2.4 0.5 -3.1 2.8 -3.5 1.5 -0.3 3.4 -0.1 4.2 0.4 0.9 0.5 1 0.9 0.3 0.9 -0.6 0 -2.5 1.2 -4.2 2.6 l-3.1 2.6 0 -3z"/>
  <path d="M152 109 c0 -11 -11.9 -18.1 -27.7 -16.7 -12.1 1.2 -19.1 6.1 -20 14.1 -0.6 5.4 -2.1 5.9 -6 2 -2.4 -2.4 -2.5 -3 -2 -9.7 0.6 -8.9 2.7 -13.3 6.7 -14.2 4.2 -0.9 8.6 -5.4 10.1 -10.3 1 -3.5 0.9 -4.8 -0.5 -8.5 -2.4 -6.4 -6.7 -9.2 -13.9 -9.1 -3.8 0.1 -6.3 0.7 -7.5 1.8 -1 0.9 -2.4 1.6 -3 1.6 -0.7 0 -1.1 0.4 -0.9 0.9 0.1 0.5 -0.2 1 -0.8 1.1 -1.3 0.2 -1.8 -2.5 -1.1 -5.6 0.5 -1.9 1.3 -2.4 3.6 -2.4 3 0 4.1 -1.4 1.8 -2.3 -0.7 -0.2 1.4 -1 4.7 -1.8 5.8 -1.3 5.9 -1.4 2.3 -1.7 -4.6 -0.4 -4.8 -1.9 -1.3 -7.9 2.9 -5.2 1.8 -5.5 -3.5 -0.7 -2.5 2.3 -4.2 4.8 -4.6 7 -0.3 1.8 -1.3 3.9 -2.2 4.6 -1.3 1.2 -1.5 0.4 -1 -7.3 0.6 -9.7 3 -16.1 7.4 -20.2 2.7 -2.5 2.7 -2.7 0.8 -2.7 -4.3 0 -10.4 9.6 -10.4 16.3 0 1 -1.1 2.8 -2.5 3.9 -1.4 1.1 -2.5 2.9 -2.5 4.2 0 2.5 2.1 7.6 3.3 7.6 0.4 0 0.7 2.7 0.7 6 0 4.7 -0.3 6 -1.5 6 -0.9 0 -2 1.1 -2.5 2.4 -0.5 1.3 -2 2.6 -3.5 3 -1.4 0.4 -3.4 2 -4.4 3.6 l-1.8 3 -1.2 -3.9 c-0.6 -2.2 -1.8 -5.2 -2.6 -6.7 -1.4 -2.7 -1.3 -3 1.5 -5.6 2.9 -2.6 3 -2.9 2.4 -8.7 -0.7 -5.9 -0.6 -6.1 2.9 -10.1 2.3 -2.4 3.9 -5.4 4.3 -7.7 0.5 -3 1.7 -4.7 5.8 -8 6.9 -5.6 13.5 -9.3 16.7 -9.3 5.6 0 11 8.6 7.3 11.6 -1.8 1.4 -1.7 1.4 1.3 0.9 3.2 -0.6 3.3 -0.6 2.7 2.2 -0.7 3.8 1.5 6.4 6.1 7.2 3.5 0.5 4 1 4.6 4.1 1 4.6 3.4 6.3 8.4 5.6 3.1 -0.3 4.8 -1.4 7.5 -4.4 1.9 -2.2 5.3 -4.9 7.6 -6 5.7 -2.9 6.6 -4.2 5.4 -8.3 -1.6 -5.5 -1.3 -6.3 1.6 -4 1.5 1.2 3.9 2.1 5.4 2.1 2.2 0 2.9 -0.6 3.7 -3.2 l0.9 -3.3 2.7 4.6 c1.5 2.5 3 6.8 3.3 9.5 l0.7 4.9 -3.4 -3.1 c-1.9 -1.7 -4.7 -3.9 -6.4 -4.9 -2.9 -1.8 -3 -1.8 -1.3 0.1 3.7 4.3 3.5 13.8 -0.4 15.3 -1.8 0.7 -1.5 0.9 2.1 1.5 8.2 1.3 13 4.9 13.1 9.8 0 3.2 -1.5 4.5 -2.7 2.3 -0.5 -0.8 -2.6 -2.4 -4.8 -3.5 l-3.9 -2 3.2 0 c1.8 0 3.2 -0.3 3.2 -0.8 0 -0.9 -10.3 -1.2 -11 -0.3 -0.3 0.3 -2.3 1.5 -4.4 2.6 -5.8 2.9 -8 6.5 -8 12.9 -0.1 6.7 2.1 10.2 8.6 13.3 4 2 4.7 2.8 6.3 7.8 2.3 7.3 1.7 14.6 -1.5 18 -3.1 3.3 -4 3.1 -4 -0.5z"/>
  <path d="M122.4 100.6 c-1.8 -1.4 -1.8 -1.5 1.1 -2.6 3.5 -1.4 13.1 -0.8 14.7 0.8 2.8 2.8 -12 4.5 -15.8 1.8z"/>
  <path d="M179.6 86.9 c-1.5 -1.1 -3.6 -3.9 -4.7 -6 l-2 -4 2 -2.5 c1.2 -1.5 2.3 -4.9 2.7 -8.4 0.6 -5.3 1.1 -6.3 5.5 -10.8 4.6 -4.7 4.9 -5.4 4.9 -10.1 0 -5.5 -0.7 -6.3 -6.9 -7.5 -4.7 -0.8 -9.7 -4.9 -12.1 -9.7 -1.2 -2.2 -3.4 -4.8 -5.1 -5.8 -1.8 -1.1 -2.6 -2.2 -2 -2.5 1.3 -0.8 5 1.4 12.1 7.4 3 2.5 7.2 5.4 9.3 6.3 4.1 2 4.8 2.8 1.5 1.9 -1.5 -0.4 -1.9 -0.2 -1.3 0.7 0.4 0.7 1.9 1.1 3.4 0.9 2.4 -0.4 2.7 -0.1 2.3 2.3 -0.4 2.9 1 3.7 6.1 3.5 1.8 -0.1 2.9 0.4 3.3 1.6 0.6 2.1 -1.3 9.5 -2.6 10 -0.6 0.2 -1.2 1.3 -1.4 2.5 -1 4.7 -2.6 6.5 -5.5 5.8 -4.9 -1 -9 5 -7 10.3 1.1 2.9 1.8 16.2 0.8 16.2 -0.4 0 -1.8 -0.9 -3.3 -2.1z"/>
  <path d="M90.8 72.3 c-1.3 -0.3 -1.8 -1.4 -1.8 -3.9 0 -2.8 0.4 -3.5 2.5 -4 3.1 -0.8 5.5 1 5.5 4.2 0 1.9 -2.8 4.8 -4.2 4.3 -0.2 -0.1 -1.1 -0.3 -2 -0.6z"/>
  <path d="M159.4 70.9 c-2 -2.2 -1.3 -4.3 1.9 -6.3 3.9 -2.5 7.8 4.4 4.1 7.1 -2.5 1.8 -3.8 1.6 -6 -0.8z"/>
 </g>
 <g fill="#ffffff">
  <path d="M135.4 165.5 c-0.3 -1.4 -0.1 -3.1 0.5 -3.9 1.6 -1.9 -0.5 -3.2 -2.4 -1.6 -2.1 1.8 -4.7 0.4 -4.3 -2.2 0.4 -2.8 3.5 -3.4 9.4 -1.8 3.6 1 4.6 1 6.5 -0.4 2.9 -2 5.5 -2.1 6.3 -0.1 0.4 1.1 -0.1 1.5 -1.9 1.5 -3 0 -3.3 1.6 -0.5 2.5 2.4 0.8 2.6 3.3 0.4 4.2 -1.1 0.4 -2.3 -0.2 -3.5 -1.8 -1.9 -2.4 -2.1 -2.4 -2.3 0.9 -0.3 5.1 -7 7.3 -8.2 2.7z"/>
  <path d="M113.2 165.7 c-1.6 -0.7 -2.2 -1.7 -1.9 -2.9 0.7 -2.4 -0.8 -2.3 -3.3 0.2 -2.4 2.4 -4 1.8 -4 -1.6 0 -1.5 -0.6 -2.4 -1.5 -2.4 -1 0 -1.5 -1 -1.5 -2.9 0 -2.4 0.4 -2.8 2.8 -2.9 4.6 0 5.2 -0.2 5.2 -1.3 0 -0.6 0.7 -1.8 1.6 -2.6 1.1 -1.1 1.4 -2.6 1 -4.8 -0.5 -2.4 -0.1 -3.6 1.4 -5 1.1 -1 2 -2.9 2 -4.2 l0 -2.4 12.8 0.2 12.8 0.2 -0.4 3.4 c-0.3 2.6 -0.9 3.3 -2.6 3.3 -2.4 0 -4 2.4 -5.1 7.3 -0.6 2.9 -3.7 4.7 -8 4.7 -3.6 0 -5.5 -2.5 -5 -6.7 0.3 -2.6 0 -4 -1.3 -4.9 -2.7 -2.1 -3.2 -1.7 -3.2 2.8 0 2.4 -0.7 4.9 -1.6 5.9 -1 1.1 -1.4 2.7 -1.1 4.1 0.6 2.1 1.2 2.3 6.4 2.3 5.3 0 5.8 0.2 6.1 2.3 0.4 3 -2.4 4.1 -4.3 1.6 -1.3 -1.7 -1.4 -1.6 -1.5 2.2 0 2.9 -0.5 4.4 -1.6 4.8 -0.9 0.3 -1.6 0.6 -1.7 0.5 -0.1 0 -1.2 -0.5 -2.5 -1.2z"/>
  <path d="M89.3 158.4 c-1.8 -0.8 -0.4 -3.4 1.8 -3.4 1 0 1.9 -0.5 1.9 -1.1 0 -0.7 -1.2 -1 -3 -0.7 -2.5 0.4 -3 0.1 -3 -1.5 0 -1.7 0.5 -1.9 4.5 -1.5 l4.4 0.5 -0.6 -4.4 c-0.5 -4.1 -0.4 -4.5 1.3 -4.1 1 0.2 1.8 1 1.6 1.7 -0.2 0.9 0.3 0.9 1.9 0 1.2 -0.6 1.9 -0.7 1.5 -0.1 -0.3 0.5 0 1.2 0.8 1.5 1.8 0.7 0.8 5.7 -1.2 5.7 -1.8 0 -4.1 2.9 -4.2 5.3 0 0.9 -0.6 1.7 -1.2 1.7 -0.7 0 -2.2 0.2 -3.3 0.5 -1.1 0.2 -2.5 0.2 -3.2 -0.1z"/>
  <path d="M161.3 158.3 c-0.7 -0.2 -1.3 -1.1 -1.3 -1.9 0 -1.1 0.8 -1.4 2.8 -1.2 1.6 0.2 2.7 0.9 2.7 1.8 0 1.5 -2.1 2.2 -4.2 1.3z"/>
  <path d="M143.9 152.3 c-0.7 -5.9 -0.2 -11.3 0.9 -11.3 1.5 0 1.7 8.7 0.2 11 -0.7 1 -1 1.1 -1.1 0.3z"/>
  <path d="M160.6 152.2 c-0.7 -1.2 -0.1 -1.7 3.6 -2.6 2.4 -0.5 4.8 0.8 3.6 2 -1.1 1 -6.6 1.5 -7.2 0.6z"/>
  <path d="M151 145.6 c0 -1.9 0.6 -2.5 3 -2.8 4.1 -0.6 4.4 0 1.1 2.8 -3.6 3 -4.1 3 -4.1 0z"/>
  <path d="M151.8 107.2 c-0.3 -2.7 -1.3 -6 -2.4 -7.4 -7.4 -9.9 -33.4 -10.5 -42.1 -1 -1.9 2 -3.4 5 -3.8 7.3 -0.8 4.4 -1.3 4.7 -4.6 2 -2.1 -1.7 -2.4 -2.8 -2.3 -8.3 0 -8.5 2.4 -13 8.6 -16.1 3.4 -1.7 5 -2.1 5.9 -1.3 0.8 0.8 1 0.6 0.5 -1 -0.4 -1.4 -0.1 -2.8 0.9 -3.7 0.8 -0.9 1.7 -3.6 1.9 -6 0.3 -3.7 -0.2 -5.2 -3.1 -9.1 -4 -5.5 -7.1 -6.9 -13.6 -6.3 -4.6 0.4 -4.7 0.4 -3.4 -1.7 0.8 -1.2 2.8 -3.1 4.6 -4.3 l3.1 -2.1 -4 -0.7 c-4.6 -0.8 -4.9 -1.9 -1.7 -6.6 3.9 -5.7 3.9 -5.9 2.2 -5.9 -2.2 0 -10.5 8.5 -10.5 10.8 0 1 -0.7 2.7 -1.6 3.8 -1.4 1.7 -1.5 1.2 -0.8 -6.1 0.7 -9.4 2.6 -14.8 6.5 -19 3.2 -3.4 3.7 -5 1.4 -4.2 -2.6 1 -2.5 -1 0.1 -2.2 3.1 -1.4 5.7 -1.4 4.9 -0.1 -0.3 0.6 0.5 1 1.9 1 2.2 0 6.1 4 3.9 4 -0.4 0 -0.1 0.5 0.7 1 1.2 0.8 1.3 1.3 0.3 3 -1.9 3 -1.6 4.1 1.2 3.6 2.2 -0.4 2.5 -0.1 2.5 2.6 0 3.7 2.3 5.7 6.8 5.8 2.7 0 3.2 0.4 3.2 2.4 0 4 3.6 7.6 7.7 7.6 3.8 0 10.6 -2.7 9.8 -4 -0.7 -1.1 4.6 -5.5 8.3 -7 4.4 -1.7 5.5 -4.1 4.3 -8.7 -1.2 -4.4 -1 -4.8 1.5 -2.7 1 0.8 1.3 1.2 0.5 0.8 -0.9 -0.4 -1.2 -0.3 -0.7 0.4 0.4 0.6 1.3 0.9 2 0.6 0.8 -0.3 1.7 -0.1 2.1 0.5 0.3 0.6 0.1 1.1 -0.5 1.1 -0.7 0 0 1.4 1.4 3.1 3.9 4.7 3.3 14.9 -1 14.9 -0.8 0 -1.2 0.5 -0.9 1 0.3 0.6 2.1 1 4 1 4.3 0 6.5 0.9 6.5 2.6 0 1 -1.3 1.4 -4.4 1.4 -6.7 0 -10.2 1 -13.6 3.9 -2.7 2.3 -3.1 3.4 -3.7 9.2 -0.4 5.1 -0.2 7.3 1.2 10 2.3 4.4 4.9 6.9 7.4 6.9 2.6 0 4.5 3 6.6 10.4 2 6.9 1.1 11.7 -2.9 15.5 l-2.3 2.2 -0.5 -4.9z"/>
  <path d="M124.8 100.7 c-1.6 -1.3 -1.6 -1.5 0.8 -2.5 3.1 -1.5 8.4 -1.6 8.4 -0.2 0 0.6 0.5 0.9 1.1 0.8 0.6 -0.2 1.3 0.2 1.6 0.8 0.2 0.6 -0.2 1.1 -0.9 1.2 -0.7 0 -3.1 0.4 -5.3 0.7 -2.7 0.4 -4.6 0.1 -5.7 -0.8z"/>
  <path d="M68.3 73.2 c0.3 -1.2 0.2 -2 -0.2 -1.8 -0.4 0.3 -1.7 -1.4 -2.8 -3.8 l-2.1 -4.3 3 -2.3 c3 -2.2 3 -2.4 2.4 -8.6 -0.7 -6.7 -0.7 -6.7 4.8 -11.1 0.8 -0.7 1.8 -3 2.2 -5 0.7 -4.2 2.2 -6.6 3.5 -5.7 0.5 0.3 0.9 -0.1 0.9 -0.8 0 -2.1 5.8 -6.8 6.4 -5.2 0.3 0.7 0.1 1.6 -0.3 1.8 -0.5 0.3 -1.6 3.4 -2.6 6.8 -0.9 3.5 -2.5 6.8 -3.5 7.5 -1.4 1 -1.9 3.5 -2.4 12.5 -0.9 13.9 -1.5 16.8 -3.3 16.8 -0.8 0 -2.6 1.2 -4 2.8 -2.4 2.5 -2.6 2.6 -2 0.4z"/>
  <path d="M90.8 72.2 c-2.3 -0.4 -2.4 -5.4 -0.3 -7.2 2.4 -2 6.6 0.3 6.1 3.2 -0.3 1.3 -0.5 2.6 -0.5 2.9 -0.1 0.9 -3.3 1.6 -5.3 1.1z"/>
  <path d="M160.6 71.7 c-1.1 -0.8 -1.7 -2.3 -1.4 -3.8 0.2 -1.9 1 -2.5 3.6 -2.7 2.5 -0.3 3.2 0.1 3.3 1.5 0.2 3 -0.2 4.8 -1.4 5.5 -1.6 1 -2.1 1 -4.1 -0.5z"/>
  <path d="M178 64.5 c0 -4.1 0.3 -4.7 4.4 -7.7 4.5 -3.3 5.9 -5.6 5.7 -9.3 l-0.1 -2 0.9 2 c1.3 2.8 1.3 10.2 0.1 12.6 -0.6 1 -1.7 1.9 -2.5 1.9 -0.8 0 -2.6 1.6 -4.1 3.5 -1.4 1.9 -3 3.5 -3.5 3.5 -0.5 0 -0.9 -2 -0.9 -4.5z"/>
  <path d="M163.9 36.4 c-0.7 -0.8 -2.5 -2.2 -4.1 -3 -3.3 -1.7 -3.5 -2.7 -0.8 -6.1 1.1 -1.4 1.7 -2.9 1.4 -3.4 -0.3 -0.5 -0.3 -0.9 0 -0.9 0.9 0 4.3 7.1 5.4 11.3 1.1 3.9 0.3 4.8 -1.9 2.1z"/>
  <path d="M175.7 35.4 c-1.6 -0.8 -2.5 -2 -2.1 -2.6 0.4 -0.7 0.3 -0.8 -0.4 -0.4 -0.6 0.4 -1.8 -0.6 -2.7 -2.3 -3.5 -7 -0.6 -6.8 6.8 0.3 3.2 3 5.7 5.7 5.7 6 0 1.1 -4.5 0.5 -7.3 -1z"/>
  <path d="M165.3 22.4 c-1.8 -0.9 -3 -2 -2.8 -2.5 0.6 -0.9 6.5 2.2 6.5 3.4 0 0.9 0.1 0.9 -3.7 -0.9z"/>
 </g>
 <g fill="#f4db7e">
  <path d="M85 199.9 c-7.1 -2.9 -9.5 -9.2 -6 -15.2 2.2 -3.7 3.9 -4.1 4.1 -0.9 0 1 0.3 1.2 0.6 0.5 0.2 -0.7 -0.9 -4 -2.6 -7.3 -1.7 -3.3 -3.1 -7.1 -3.1 -8.4 0 -3.5 7 -9 8.5 -6.6 0.4 0.6 1.6 1 2.7 1 2.4 0 9.1 4.7 8.3 5.9 -1 1.7 7.5 4 17 4.5 12.7 0.7 36.8 -0.9 42 -2.8 3.3 -1.2 3.5 -1.5 1.5 -1.5 l-2.5 -0.1 2.8 -2.7 c4 -4 10.4 -3.9 14.6 0.1 2 1.9 3.1 4 3.1 5.7 0 3.1 -2.4 8.2 -3.3 7.2 -0.4 -0.3 -0.7 0.2 -0.7 1.3 0 1 1.4 3.7 3 5.8 1.7 2.2 3 4.5 3 5.2 0 4.5 -5.4 9.4 -10.4 9.4 -2.8 0 -11.6 -7.2 -11.6 -9.4 0 -2.9 -7.3 -4.8 -20.5 -5.3 -21.8 -0.9 -37.3 2 -38.1 7.1 -0.4 2.6 -4.3 6.4 -7.4 7 -1.4 0.3 -3.6 0.1 -5 -0.5z"/>
 </g>
 <g fill="#f3dd6d">
  <path d="M79 188.6 c0 -1.6 1.8 -3.1 2.7 -2.2 0.3 0.3 -0.2 1.2 -1.1 2.1 -1.4 1.4 -1.6 1.4 -1.6 0.1z"/>
  <path d="M85 186.8 c0 -0.9 0.5 -2 1 -2.3 0.8 -0.5 0.8 -1.1 0 -2 -0.8 -1 -0.8 -1.4 0.1 -1.7 0.9 -0.3 0.9 -0.9 0.1 -2.4 -1.1 -1.9 -1.1 -1.9 -1.2 0.1 0 2.3 -1.1 1.3 -3.9 -3.8 -2.7 -4.8 -2.7 -8.2 0.1 -10.1 3.8 -2.7 13.8 0.1 13.8 3.9 0 1.9 6.4 4.3 13.2 5.1 3.4 0.3 6.9 1.1 7.6 1.7 0.9 0.7 2.5 0.6 5.1 -0.3 3.7 -1.2 8.7 -1 12.4 0.5 1 0.4 2.8 0.3 4 -0.3 1.2 -0.6 6.3 -1.5 11.2 -2.2 9.4 -1.2 14.3 -2.8 13.5 -4.5 -0.3 -0.6 -1.1 -0.9 -1.7 -0.9 -0.7 0.1 -1.3 -0.2 -1.3 -0.7 0 -1.1 1.2 -1.5 6.4 -2.3 3.3 -0.4 4.3 -0.1 6.7 2.3 2.1 2.1 2.7 3.6 2.4 5.7 -0.2 1.6 -0.4 3.2 -0.4 3.5 -0.1 0.4 -1.1 0.9 -2.2 1.2 -1.9 0.5 -2.1 1.1 -1.5 4.1 0.9 4.5 -0.9 4.8 -2 0.4 l-0.8 -3.3 -0.3 3.2 c-0.4 2.8 -0.8 3.1 -4.4 3.5 -2.1 0.2 -3.9 0.1 -3.9 -0.3 0 -1 -4.9 -2.9 -7.5 -2.9 -1.3 0 -2.5 0.6 -2.7 1.2 -0.4 1 -1 1 -3.2 0 -3.1 -1.4 -7.2 -1.6 -8 -0.4 -0.7 1.2 -10.6 1.3 -10.6 0.1 0 -0.5 -2.9 -0.8 -6.5 -0.7 -4.7 0.1 -6.4 0.5 -6.1 1.4 0.5 1.3 -2.4 2.4 -6.4 2.4 l-2.5 -0.1 2.3 -1.2 c3.5 -2 1.6 -2.7 -7.4 -2.7 -6.3 0 -8.3 0.3 -8.8 1.5 -0.3 0.8 -1.3 1.5 -2.2 1.5 -0.9 0 -2.3 0.8 -3 1.8 -1.2 1.6 -1.3 1.6 -1.4 0z m44.8 -9.5 c-1.5 -0.2 -4.2 -0.2 -6 0 -1.8 0.2 -0.6 0.4 2.7 0.4 3.3 0 4.8 -0.2 3.3 -0.4z"/>
  <path d="M150 186 c2 -1.3 4 -1.3 4 0 0 0.6 -1.2 1 -2.7 1 -2.2 0 -2.5 -0.2 -1.3 -1z"/>
 </g>
</svg>